<?xml version="1.0" encoding="utf-8"?>
<!DOCTYPE svg PUBLIC "-//W3C//DTD SVG 1.1//EN" "http://www.w3.org/Graphics/SVG/1.1/DTD/svg11.dtd">
<svg style="width:308px;height:308px;" version="1.1" id="图形" xmlns="http://www.w3.org/2000/svg" xmlns:xlink="http://www.w3.org/1999/xlink" x="0px" y="0px" width="1024px" height="1024px" viewBox="0 0 1024 1024" enable-background="new 0 0 1024 1024" xml:space="preserve">
  <path class="svgpath" data-index="path_0" fill="#f4c600" d="M512.553 16.567c67.947 0 132.119 13.037 192.517 39.113 60.398 26.076 112.867 61.409 157.41 106.003 44.543 44.593 79.838 97.121 105.884 157.587 26.047 60.465 39.070 124.708 39.070 192.732 0 68.778-13.023 133.212-39.070 193.299-26.047 60.087-61.341 112.615-105.884 157.587-44.543 44.97-97.014 80.305-157.41 106.003-60.398 25.697-124.57 38.547-192.517 38.547-68.702 0-133.063-12.849-193.083-38.547-60.020-25.697-112.49-61.031-157.41-106.003-44.921-44.97-80.404-97.5-106.45-157.587-26.047-60.087-39.070-124.519-39.070-193.299 0-68.023 13.023-132.266 39.070-192.732 26.047-60.465 61.53-112.993 106.45-157.587 44.921-44.593 97.39-79.927 157.41-106.003 60.020-26.076 124.381-39.113 193.083-39.113v0zM691.48 262.583c-21.894 0-40.391 9.069-55.49 27.209-15.099 18.14-22.649 40.058-22.649 65.756 0 26.454 7.549 48.749 22.649 66.889 15.099 18.14 33.596 27.209 55.49 27.209 21.894 0 40.391-9.069 55.49-27.209 15.099-18.14 22.649-40.436 22.649-66.889 0-25.697-7.549-47.616-22.649-65.756-15.099-18.14-33.596-27.209-55.49-27.209v0zM324.566 264.851c-21.139 0-39.070 9.069-53.792 27.209-14.722 18.14-22.083 40.058-22.083 65.756 0 26.454 7.361 48.561 22.083 66.323 14.722 17.761 32.653 26.643 53.792 26.643 21.139 0 39.259-8.881 54.358-26.643 15.099-17.761 22.649-39.869 22.649-66.323 0-25.697-7.549-47.616-22.649-65.756-15.099-18.14-33.218-27.209-54.358-27.209v0zM517.083 880.457c40.013 0 77.95-7.18 113.812-21.54 35.861-14.361 68.136-34.012 96.825-58.953 28.689-24.941 53.036-54.041 73.043-87.296 20.007-33.255 34.162-68.778 42.467-106.569v-5.668c0-6.047-2.265-11.526-6.795-16.439-4.53-4.913-10.192-7.369-16.987-7.369h-605.861c-6.795 0-13.023 2.457-18.685 7.369-5.662 4.913-7.738 10.393-6.228 16.439 1.51 7.558 2.643 12.849 3.397 15.872 0.755 3.023 1.51 5.29 2.265 6.803 9.814 36.279 24.914 70.102 45.298 101.468 20.384 31.366 44.354 58.575 71.91 81.628 27.556 23.052 58.698 41.191 93.427 54.419 34.729 13.226 72.099 19.84 112.112 19.84v0z" />

</svg>
